<svg class="svg-icon" style="width: 1em; height: 1em;vertical-align: middle;fill: currentColor;overflow: hidden;" viewBox="0 0 1024 1024" version="1.1" xmlns="http://www.w3.org/2000/svg"><path d="M786.3 543.8c1.6 155.3 133.9 206.2 135.2 206.8-1.3 3.9-21 74-69.5 146.1-42 62.2-85.5 124.9-154 126-67.5 1.2-89.1-41-166.1-41-76.9 0-101.1 39.9-164.8 42.2-65.9 2.7-116.7-68-158.8-129.9C122 767.2 55.7 534.7 144.7 378.9c43.8-78 122.5-127.5 208.2-129 64.6-1.2 126 44.5 165.3 44.5 40.3 0 114.6-55.4 193-47.1 32.8 1.4 124.6 13.9 183.8 101.2-4.6 3.4-109.9 66.6-108.7 195.3zM659.8 164.2c-35.1 42.3-92.8 75.7-148.9 72.2-7.9-59.2 20.5-120.5 52.9-158.6C600.3 34.1 661.9 2 712.3 0c6.2 59.9-17.1 120.3-52.5 164.2z"  /></svg>